<?xml version="1.0" ?><svg enable-background="new 0 0 24 24" height="24px" version="1.1" viewBox="0 0 24 24" width="24px" xml:space="preserve" xmlns="http://www.w3.org/2000/svg" xmlns:xlink="http://www.w3.org/1999/xlink"><g id="Outline_Icons_1_"><g><g><path d="M8.5,22.48v-9.5     c0-1.932,1.567-3.5,3.5-3.5c1.934,0,3.5,1.568,3.5,3.5v9.5" fill="none" stroke="#000000" stroke-linecap="round" stroke-linejoin="round" stroke-miterlimit="10"/><path d="M6.487,16.426     C5.862,15.427,5.5,14.246,5.5,12.981c0-3.59,2.91-6.5,6.5-6.5s6.5,2.91,6.5,6.5c0,1.271-0.365,2.458-0.997,3.46" fill="none" stroke="#000000" stroke-linecap="round" stroke-linejoin="round" stroke-miterlimit="10"/><path d="M13.5,12.981     c0-0.829-0.671-1.5-1.5-1.5c-0.828,0-1.5,0.671-1.5,1.5v1.5h3V12.981z" fill="none" stroke="#000000" stroke-linecap="round" stroke-linejoin="round" stroke-miterlimit="10"/></g><polyline fill="none" points="10,2.48     12,4.481 14,2.48   " stroke="#000000" stroke-linecap="round" stroke-linejoin="round" stroke-miterlimit="10"/><polyline fill="none" points="22,9.981     20,11.981 22,13.981   " stroke="#000000" stroke-linecap="round" stroke-linejoin="round" stroke-miterlimit="10"/><polyline fill="none" points="2,9.981     4,11.981 2,13.981   " stroke="#000000" stroke-linecap="round" stroke-linejoin="round" stroke-miterlimit="10"/></g></g><g id="Invisible_Shape"><rect fill="none" height="24" width="24"/></g></svg>